<?xml version="1.0" encoding="iso-8859-1"?>
<!-- Generator: Adobe Illustrator 19.0.0, SVG Export Plug-In . SVG Version: 6.00 Build 0)  -->
<svg xmlns="http://www.w3.org/2000/svg" xmlns:xlink="http://www.w3.org/1999/xlink" version="1.1" id="Capa_1" x="0px" y="0px" viewBox="0 0 489.454 489.454" style="enable-background:new 0 0 489.454 489.454;" xml:space="preserve" width="512px" height="512px">
<g>
	<g>
		<path d="M230.087,207.317c9.6,9.6,23,7.2,29.1,1l86.3-86.3c8.3-8.3,8.3-20.8,0-29.1l-86.3-86.3c-8.7-8.7-21.5-8.6-29.1-1    l-86.3,86.3c-8.3,8.3-8.3,20.8,0,29.1L230.087,207.317z M244.687,49.217l57.2,58.3l-57.2,57.2l-57.2-57.2L244.687,49.217z" fill="#006DF0"/>
		<path d="M259.287,282.317c-8.7-8.7-21.5-8.6-29.1-1l-86.3,86.3c-8.3,8.3-8.3,20.8,0,29.1l86.3,86.3c9.6,9.6,23,7.2,29.1,1    l86.3-86.3c8.3-8.3,8.3-20.8,0-29.1L259.287,282.317z M244.687,440.517l-57.2-57.2l57.2-58.3l57.2,58.3L244.687,440.517z" fill="#006DF0"/>
		<path d="M480.187,230.217l-86.3-86.4c-8.3-8.3-20.8-8.3-29.1,0l-86.3,86.3c-9.6,9.6-7.2,23-1,29.1l86.3,86.3    c8.3,8.3,20.8,8.3,29.1,0l86.3-86.3C487.887,250.717,487.787,237.817,480.187,230.217z M378.287,302.017l-57.2-57.2l57.2-57.2    l58.3,57.2L378.287,302.017z" fill="#006DF0"/>
		<path d="M211.787,230.217l-86.3-86.4c-8.3-8.3-20.8-8.3-29.1,0l-86.3,86.3c-9.6,9.6-7.2,23-1,29.1l86.3,86.3    c8.3,8.3,20.8,8.3,29.1,0l86.3-86.3C219.487,250.717,219.387,237.817,211.787,230.217z M109.887,302.017l-57.2-57.2l57.2-57.2    l58.3,57.2L109.887,302.017z" fill="#006DF0"/>
	</g>
</g>
<g>
</g>
<g>
</g>
<g>
</g>
<g>
</g>
<g>
</g>
<g>
</g>
<g>
</g>
<g>
</g>
<g>
</g>
<g>
</g>
<g>
</g>
<g>
</g>
<g>
</g>
<g>
</g>
<g>
</g>
</svg>
